<svg xmlns="http://www.w3.org/2000/svg" viewBox="0 0 111 111" role="img" aria-label="SEARULEA">
  <!-- Official SEARULEA logomark (111×80), centred in a square canvas for the browser tab.
       Brand teal in light tabs, white in dark tabs so it never disappears. -->
  <style>
    .logomark { fill: #09566C; }
    @media (prefers-color-scheme: dark) {
      .logomark { fill: #FFFFFF; }
    }
  </style>
  <g class="logomark" transform="translate(0, 15.5)">
    <path d="M83.8015 79.9999C89.1372 79.9999 93.4626 75.6745 93.4626 70.3388C93.4626 65.0031 89.1372 60.6777 83.8015 60.6777C78.4659 60.6777 74.1404 65.0031 74.1404 70.3388C74.1404 75.6745 78.4659 79.9999 83.8015 79.9999Z"/>
    <path d="M75.239 55.1383C79.3483 55.1383 82.6796 51.807 82.6796 47.6977C82.6796 43.5883 79.3483 40.2571 75.239 40.2571C71.1297 40.2571 67.7984 43.5883 67.7984 47.6977C67.7984 51.807 71.1297 55.1383 75.239 55.1383Z"/>
    <path d="M34.6391 55.1383C38.7484 55.1383 42.0797 51.807 42.0797 47.6977C42.0797 43.5883 38.7484 40.2571 34.6391 40.2571C30.5297 40.2571 27.1985 43.5883 27.1985 47.6977C27.1985 51.807 30.5297 55.1383 34.6391 55.1383Z"/>
    <path d="M43.6301 34.9278C47.0036 34.9278 49.7384 32.193 49.7384 28.8195C49.7384 25.446 47.0036 22.7112 43.6301 22.7112C40.2566 22.7112 37.5218 25.446 37.5218 28.8195C37.5218 32.193 40.2566 34.9278 43.6301 34.9278Z"/>
    <path d="M67.7984 34.9278C71.1719 34.9278 73.9067 32.193 73.9067 28.8195C73.9067 25.446 71.1719 22.7112 67.7984 22.7112C64.4249 22.7112 61.6901 25.446 61.6901 28.8195C61.6901 32.193 64.4249 34.9278 67.7984 34.9278Z"/>
    <path d="M55.5818 16.2213C60.0612 16.2213 63.6925 12.59 63.6925 8.11063C63.6925 3.63125 60.0612 0 55.5818 0C51.1024 0 47.4712 3.63125 47.4712 8.11063C47.4712 12.59 51.1024 16.2213 55.5818 16.2213Z"/>
    <path d="M55.5818 63.0852C58.9553 63.0852 61.6901 60.3505 61.6901 56.9769C61.6901 53.6034 58.9553 50.8687 55.5818 50.8687C52.2083 50.8687 49.4735 53.6034 49.4735 56.9769C49.4735 60.3505 52.2083 63.0852 55.5818 63.0852Z"/>
    <path d="M55.5818 72.419C57.7935 72.419 59.5865 70.6261 59.5865 68.4143C59.5865 66.2026 57.7935 64.4097 55.5818 64.4097C53.3701 64.4097 51.5771 66.2026 51.5771 68.4143C51.5771 70.6261 53.3701 72.419 55.5818 72.419Z"/>
    <path d="M55.5818 78.434C56.6963 78.434 57.5997 77.5306 57.5997 76.4161C57.5997 75.3016 56.6963 74.3982 55.5818 74.3982C54.4674 74.3982 53.5639 75.3016 53.5639 76.4161C53.5639 77.5306 54.4674 78.434 55.5818 78.434Z"/>
    <path d="M27.1985 79.9999C32.5342 79.9999 36.8596 75.6745 36.8596 70.3388C36.8596 65.0031 32.5342 60.6777 27.1985 60.6777C21.8628 60.6777 17.5374 65.0031 17.5374 70.3388C17.5374 75.6745 21.8628 79.9999 27.1985 79.9999Z"/>
  </g>
</svg>
